<?xml version="1.0" encoding="UTF-8" standalone="no"?><svg xmlns="http://www.w3.org/2000/svg" xmlns:xlink="http://www.w3.org/1999/xlink" contentScriptType="text/ecmascript" fill="#000000" width="707" zoomAndPan="magnify" contentStyleType="text/css" viewBox="-1.5 -0.0 706.8 915.0" height="915" data-name="Layer 2" preserveAspectRatio="xMidYMid meet" version="1"><g data-name="Layer 1"><g fill="#f7c63e" id="change1_1"><path d="m86.18,349.07c-5.35-5.45-10.8-11.34-16.62-16.83-4.63-4.37-11.29-5.81-15.46-11.28-4.02-5.27-9.51-9.39-13.95-14.38-2.32-2.61-8.48.11-7.92-6.43.45-5.18-4.99-2.59-7.43-4.41-6.04-4.5-7.93-11.69-12.51-17.02.99-4.04-1.95-6.07-4.4-8.18-2.7-2.32-4.01-4.88-3.7-8.56.34-3.98.71-8.14-.06-12-1.52-7.64,2.7-13.57,5.04-20.06.62-1.72,3.21-3.44,2.91-4.68-1.28-5.24,3.26-8.19,4.19-12.44.82-3.77-1.96-8.55,1.49-11.3,3.06-2.44,1.56-6.18,4.03-8.54,1.26-1.2,2.2-3.18,2.45-4.93,1.02-7.14,3.57-13.46,9-18.35,3.89-3.51,5.84-8.35,8.82-12.29,3.9-5.16.94-10.29,2.55-15.17,3.73-3.73,7.52-7.52,11.3-11.3,2.84-2.84,5.6-5.76,8.54-8.48,2.46-2.28,4.73-4.55,4.23-8.29,4.08-1.95,3.26-6.72,5.58-9.76,1.45-1.9,1.59-4.79,3.03-6.71,1.98-2.65,4.4-5.12,7.05-7.09,3.65-2.71,4.71-6.06,4.28-10.36-.11-1.08.53-2.78,1.39-3.33,5.81-3.77,6.87-10.63,10.43-15.84,2.39-3.5,3.08-8.11,5.23-11.82,2.2-3.78,7.78-5.44,6.98-11.17,4.43-5.46,10.72-9.02,13.12-16.67,1.82-5.81,11.16-7.43,10.99-15.47l13.59-5.94h11.97c9.62,6.27,12.08,18.56,21.36,25.16,1.11.79,1.33,3.65,1.07,5.42-.74,5.06,5.1,7.06,5,12.15-.06,3.02,6.99-.63,7.12,4.6.09,3.34.02,6.69.02,11.35,3.87,3.17,8.47,6.94,11.9,9.75.39,5.8-.96,9.83,3.05,12.88,3.16,2.41,6.45,5.19,8.35,8.55,1.5,2.66,1.46,6.3,4.5,8.11,4.92,2.94,4.65,7.57,4.25,12.82,10.56,5.99,13.37,17.99,19.69,27.47,1.25,1.88.86,4.74,2.87,6.86,1.59,1.68,1.96,4.47,2.99,6.72.77,1.69,1.62,3.37,2.63,4.92,1.38,2.13,2.83,4.24,4.48,6.16,1.74,2.02,3.61,3.98,5.67,5.66,2.53,2.06,1.61,4.76,1.89,7.28.14,1.23.2,2.98.98,3.53,5,3.53,7.32,9.03,9.65,14.13,2.32,5.07,5.25,9.83,7.31,15.02.91,2.3,1.28,5.26,2.95,6.72,4.5,3.95,6.15,9.95,10.06,13.83,4.3,4.26,4.72,10.55,9.59,14.3,4.2,3.23,7.65,7.45,11.52,11.32v8.59c3.54,3.36,8.75,6.39,10.87,10.88,2,4.24,4.4,7.64,7.39,11,1.14,1.28,1.41,3.41,1.85,5.21,1.26,5.15,5,14.2,8.25,16.57,5.53,4.02,7.21,10.54,11.07,15.62,2.89,3.81,3.18,9.6,6.09,13.38,3.13,4.06,6.84,7.57,8.29,12.69,5.85,2.84,5.44,10.07,9.83,14.06,1.16,1.05.48,4.08,1.63,5.21,3.72,3.67,7.09,7.42,8.41,12.63,9.48,6.5,12.15,17.74,18.44,26.46-1.68,4.72,4.46,6.17,4.28,10.27-.18,4.06,3.48,5.5,5.76,7.57,3.06,2.78,2.23,7.06,5.37,10.01,4.08,3.82,6.11,9.9,10.3,13.52,4.68,4.04,5.63,10.13,9.79,14.11,2.89,2.76,4.12,6.22,5.9,9.59,2.62,4.97,5.11,9.86,7.21,15.1,1.83,4.58,8.1,6.29,8.39,12.67.14,3.14,7.38.15,7.25,4.48-.16,4.95,1.87,8.52,4.16,12.43,2.49,4.26,4.32,8.9,6.55,13.32,1.98,3.94,2.8,8.62,7.07,11.12,3.7,2.16,1.58,7.75,5.68,9.68.16,5.11,3.82,7.99,7.1,11.1,2.23,2.11,2.78,4.61.64,6.79-1.98,2.02-2.02,4.83-3.18,6.68-2.39,3.83-6.48,6.6-10.36,10.28h-19.12c-5.91-3.67-9.03-10.51-16.75-12.82-5.79-1.73-7.56-10.93-15.4-11.15-3.34-3.25-6.88-6.31-9.95-9.8-2.69-3.05-7.36-1.86-9.84-5.56-4.47-6.64-11.72-9.59-18.72-12.77-1.7-.77-3.66-1.57-4.75-2.95-6.56-8.36-17.92-10.86-23.94-19.8-6.39-2.47-12.28-5.92-18.31-9.12-6.11-3.25-12.52-5.56-17.77-10.56-2.97-2.83-7.81-3.6-11.55-5.75-4.87-2.8-11.02-3.65-14.44-8.65-2.11-3.09-6.11-2.33-8.17-4.37-2.72-2.69-5.7-2.43-8.84-3.17-4.13-.97-8.56-2.65-11.7-5.37-3.93-3.4-8.13-5.94-12.54-8.57-3.74-2.23-6.3-6.44-11.25-6.85-3.37-5.11-8.89-7.58-14.04-9.67-5.1-2.07-9.52-5.6-15.78-5.83-5.44-.2-7.6-8.75-14.35-8.6-5.96-8.17-16.4-9.2-23.94-14.96-2.83-2.16-6.84-2.74-10.26-4.18-1.14-.48-2.54-1.18-3.06-2.17-2.99-5.76-10.64-5.04-13.92-9.95-3.14-4.71-9.31-3.91-12.83-8.27-2.61-3.24-6.94-6.08-10.96-6.94-4.32-.93-7.04-3.13-9.56-6.04-1.94-2.24-4.17-3.43-6.93-2.64-5.26,1.52-7.08-6.04-12.26-4.41-4.05-6.29-12.42-6.98-16.73-12.81-2.99-4.04-7.07-2.63-11.36-2.94Zm18.07-118.01c-.63-.77-1.17-1.67-1.94-2.28-.36-.29-1.39-.28-1.68.02-.3.3-.31,1.33-.02,1.68.63.75,1.49,1.35,2.37,1.82.15.08.8-.77-18.47-77.76v20c7.03,4.87,2.77,12.21,4.11,18.32.38,1.72,1.77,3.31,2.95,4.75,2.65,3.22-1.06,7.95,2.77,10.88,3.9,2.99,1.7,7.34,2.19,11.07.34,2.57.35,5.18.68,7.74.07.52.8,1.16,1.37,1.38,1.96.77,1.56-.5,2.22-1.85,1.24-2.53,4.38-3.25,1.06-7.46-2.98-3.79-2.34-9.78.54-14.58.55-.91,1.55-2.63,1.43-2.72-5.52-3.96-3.09-9.74-3.18-14.72-.27-14.66-.05-29.34-.19-44,0-.98-1.42-2.76-2.16-2.75-1.79.03-5.08.82-5.11,1.44-.3,6.11-5.48,8.59,11.06,89.02Zm148.8,102c0,2,.34,4.07-.07,5.97-1.1,5.1,3.36,6.72,5.73,9.63.09.11.99-.25,1.34-.58.44-.42,1.01-1.05.98-1.55-.33-5.21-4.9-8.56-6.06-13.45-.04-.15-1.25-.02-1.92.06-.06-12.54.17-12.67-5.83-23.68-1.32-2.42-2.67-4.51-2.13-7.12.84-4.01-3.63-5.32-3.97-8.38-.44-3.96.1-8.02-.2-12-.13-1.76-1.21-3.48-2.02-5.14-1.34-2.79-2.55-5.7-4.31-8.21-1.51-2.16-3.7-3.83-5.5-5.63-.93-5.88,2.5-12.85-1.74-17.31-5.21-5.49.55-12.77-5.13-18.22-3.69-3.54-4.72-9.87-6.86-14.76-1.86,0-3.2-.11-4.53.03-1.84.18-3.67.54-5.64.85,2.77,5.4,5.63,10.09,7.59,15.13,1.38,3.53-1.73,8.24,1.55,11.33,4.19,3.93,1.96,8.65,2.58,13.01.09.64-.12,1.72.19,1.88,4.01,2.05,2.7,7.4,5.72,9.63,4.52,3.34-.12,9.01,4.02,12.54,2.18,1.86,2.52,5.73,4.48,8.02,3.48,4.06-.93,11.11,5.56,13.77.03,3.33-.22,6.69.22,9.96.23,1.72,1.79,3.23,2.58,4.91,1.83,3.91,3.59,7.86,5.32,11.82,1.6,3.68,3.9,6.57,8.04,7.52Zm-76.57,22.4c-.63-.77-1.17-1.67-1.94-2.28-.36-.29-1.39-.28-1.68.02-.3.3-.31,1.33-.02,1.68.63.75,1.49,1.35,2.37,1.82.15.08.8-.77-2.47-3.52.17-3.34.55-6.5-2.71-9-2.33-1.79-17.6-28.57-17.1-30.84,1.3-5.84-5.47-9.1-4.12-14.41,1.47-5.8-1.86-9.96-4.21-14.36-2.45-4.6-4.97-8.89-4.03-14.46.28-1.66-.83-3.55-1.51-6.14-1.92,2.12-3.16,3.67-4.58,5.04-2.21,2.11-2.54,4.33-.82,6.87,1.05,1.56,2.76,3.12,2.88,4.78.37,5.32.48,10.72-.02,16.02-.22,2.28-2.2,4.38-3.59,6.95.17,1.44,5.4,1.54,2.04,5.09-.87.92-2.13,1.99-2.2,3.06-.4,5.73,1.19,11.83-3.96,16.55-.4.36,1.05,4.21,2.2,4.55,6.83,2.02,12.99,4.91,17.85,10.28.8.88,2.3,2.04,3.16,1.82,6.52-1.68,9.75,2.99,13.29,6.78,2.33,2.49,5.04.75,11.18,3.7Zm136.41,79.97c2.72,2.1,5.11,4.23,7.77,5.94,4.81,3.07,10.85,3.13,15.72,5.52,6.09,2.98,13.01,4.91,17.97,9.74,5.12,4.98,12.77,6.46,16.83,12.67,2.5,3.82,6.03,4.95,10.28,4.19,2.57-.46,3.78,1.44,4.76,2.93,3.07,4.63,9.1,4.48,12.65,8.39,3.87,4.25,7.56,9,13.86,9.97,3.9,6.47,12.64,6.54,16.82,12.71.51.76,1.83.98,2.77,1.45.39-1.81,1.71-4.62,1.02-5.26-4.33-4.02-4.14-10.89-9.66-14.25-2.58-1.57-5.45-4.68-5.8-7.4-.52-4.08-6.03-5.69-4.33-10.32-3.26-3.32-6.8-6.43-9.7-10.04-1.9-2.36-2.88-5.45-4.65-8.97-2.65,4.09-5.03,7.77-7.99,12.34h-16.26c-4.69-4.69-9.09-9.83-14.26-13.99-3.41-2.74-2.31-7.4-5.55-9.81-2.65-1.96-1.8-4.78-1.72-7.28.12-4.08.14-7.98-3.92-10.42,1.46-4.58-4.02-6.23-4.27-10.29-.23-3.8,2.06-8.35-1.48-11.29-3.25-2.71-1.76-7.44-5.43-9.98-1.7-1.18-1.47-4.91-3.08-6.54-2.86-2.89-1.16-6.28-2.07-9.24-.7-2.31-3.24-4.13-3.72-6.43-.66-3.2-.25-6.65-.14-9.98.09-2.69.11-5.25-2.42-7.03-2.74-1.93-.9-4.97-1.7-7.31-.99-2.9-2.95-5.49-3.84-8.41-1.12-3.66,1.89-8.35-1.64-11.27-3.28-2.72-2.44-6.98-5.25-10.08-2.27-2.51-2.47-7.29-6.01-9.32-3.91-2.25-2.79-6.88-5.43-9.91-2.74-3.15-3.99-7.61-5.8-11.54-.25-.55.25-1.59-.09-1.94-3.71-3.85-7.19-8.01-11.37-11.27-5.32-4.16-5.04-12.08-11.2-15.54-.84-.47-1.23-2.15-1.41-3.34-.77-5.06-6.34-6.44-8.02-10.71-.45-1.15-.12-2.62-.58-3.77-.74-1.89-1.83-1.91-2.78-.24-3.87,8.18,2.74,11.87,7.33,16.78,0,3.05-.52,6.46.15,9.63.62,2.94,2.54,5.59,3.86,8.39,2.14,4.56,5.65,8.69,4.06,14.38-.81,2.9,1.92,4.6,2.77,6.83,2,5.26,4.83,10.07,7.45,14.94,3.07,5.73,1.62,11.58,1.61,17.31-.01,5.56,4.06,9.06,5.6,13.81.88,2.73,4.65,4.53,6.69,6.37v16.76c2.45,2.45,5.3,4.5,7.03,7.26,1.61,2.58,2.13,5.66,4.1,8.38,1.61,2.23.98,6.34.76,9.58-.46,6.75,9.71,7.42,8.24,14.74-.1.48,1.84,1.49,2.93,2.07,1.6.84,3.3,1.51,4.95,2.25-2.5,5.17,7.09,6.75,3.44,12.5-6.07,5.24-10.71,12.82-19.84,15.42Zm-107.66-92.67c1.24,2.12,2.94,3.7,2.76,5.03-.23,1.67-3.04,3.21-2.92,4.66.56,6.49-6.01,3.44-8.02,6.43-2.52,3.77-3.74-.38-5.67-1-2.4-.78-5.15-.74-7.72-.62-.91.04-1.75,1.38-2.62,2.13.47.47.87,1.18,1.43,1.37,1.77.59,3.81.63,5.37,1.53,3.32,1.91,4.57,6.33,9.17,6.99,4.96.72,7.08,5.55,10.43,8.57,4.35,3.94,9.59,5.95,15.04,7.23,2.52.59,5.25.07,6.95,2.63,7.13,10.7,21.64,11.25,29.32,21.22.29.37,1.28.51,1.81.34,5.14-1.68,8.29,4.14,12.35,3.74,4.59-.45,7.53,3.48,12.22,3.36,0-3.19,1.09-6.82-.21-8.22-3.59-3.84-2.95-10.06-7.82-12.91,2.65-6.49-3.38-10.66-4.55-16.22-.84-4.02-5.19-7.2-6.57-11.23-1.42-4.15-1.12-8.9-1.68-13.37-.06-.45-.89-.8-1.35-1.19-2.71,1.86-1.29,4.83-2.01,7.19-.89,2.92-2.54,5.62-3.91,8.39-4.04,8.17-10.77,11.34-18.7,7.23-2.76-1.43-6.18-1.87-8.35-4-4.55-4.46-11.17-7.99-9.06-16.24-4.05-5.58-6.9-11.77-8.78-16.5-2,1-4.69,2.33-6.93,3.44Zm-134.77-57.85c3.26-14.09,2.98-19.24-2.07-29.43-.83-1.69-3.31-2.85-3.56-4.48-.6-3.88.94-8.58-.73-11.68-1.86-3.46-4.12-6.22-3.76-10.51.39-4.63.23-9.32-.05-13.97-.05-.77-1.8-1.82-2.9-2.06-1.13-.24-2.77-.03-3.62.67-2.49,2.07-.72,6.27-4.21,8.3-2.12,1.24-5.27,4.32-4.88,5.65,1.81,6.06-4.08,9.37-4.27,14.41-.22,5.9-.05,11.81-.05,17.02,3.97,3.97,7.27,7.27,10.56,10.56,2.82,2.82,6.03,5.37,8.38,8.54,2.9,3.92,9.03,2.19,11.16,6.98ZM151.2,51.82c-4.53,4.97-8.98,9.87-14.52,15.95,0,9.37-.42,20.69.19,31.96.26,4.82,5.15,8.45,4.05,14.41-1.07,5.81-.27,11.97-.22,17.97.04,4.53,1.73,5,7.46,2.55-1.14-2.16-3.24-4.35-3.3-6.59-.34-11.33-.09-22.69-.23-34.03-.02-1.79-.5-4.01-1.62-5.26-2.58-2.84-2.74-4.87-.67-8.44,4.9-8.42,8.95-17.28,20.92-16.78.46.02,1.37-2.1,1.4-3.24.03-1.14-.46-2.95-1.27-3.35-3.87-1.89-7.93-3.4-12.2-5.16Zm33.82,52.48c-3.12.11-3.92,1.55-2.88,3.36.91,1.58,2.36,3.1,2.58,4.77.41,3.21-.26,6.58.34,9.73.19,1.01,2.98,2.04,4.63,2.11,2.02.08,3.94-1.46,3.09-3.7-1.74-4.58-5.59-8.44-4.14-14.09.12-.47-2.83-1.72-3.61-2.18Zm8.12,36.72c-.73-1.74-1.14-2.87-1.7-3.92-.09-.16-.99-.13-1.3.1-2.01,1.49-2.03,5.76.14,6.44.65.21,2-1.8,2.86-2.62Z"/><path d="m4.26,688.26c0-9.25.1-18.59-.06-27.93-.05-2.82.81-4.78,2.59-7.03,2.38-3,2.3-3.62-.13-6.65-1.79-2.23-3.8-5.04-1.9-6.75,3.54-3.16,3.06-6.81,3.71-10.67.59-3.55,4.91-5.84,3.98-10.44-.3-1.49.95-3.7,2.13-5,3.59-3.96,7.5-7.63,11.28-11.41,1.27-.16,2.56-.5,3.82-.43,4.55.23,10.23-.96,13.36,1.32,3.83,2.78,8.39.98,10.81,2.97,4.04,3.32,7.94,3.74,12.63,3.81,5.68.07,12.09-2.15,16.4,3.91,5.31.09,10.63.17,15.94.26,4.37,6.24,10.9,3.04,16.51,3.68,3.83.44,8.11-.94,10.65,3.41,3.32-.42,5.73-6.3,9.57-2.24,2.7,2.85,5.56,2.92,8.9,2.95,5.11.05,10.8-1.68,14.39,3.97,3.75-.45,8.14,1.59,10.86-2.88.83-1.36,1.74-1,2.86.57,1.15,1.61,2.09,1.87,4.32.52,5.93-3.57,12.69-4.94,17.43,1.54,3.05,4.17,8.61,3.02,11.26,6.98,1.08,1.61,1.67,1.42,2.91-.17,2.34-3.02,5.13-3.85,8.24-.79.9.88,1.99,2.1,3.07,2.18,5.73.41,11.92-1.29,16.39,4.11h18.06c4.48,5.35,10.65,3.77,16.39,4.05,1.87.09,4.78.06,5.4,1.13,3.06,5.31,8.95.91,12.51,4.1,1.35,1.21,3.39,2.83,4.83,2.58,6.82-1.16,11.2,5.64,18.49,4.6,5.93-.85,12.79-2.97,18.86,2.59,4.1,3.76,11.92-1.96,16.21,4.39.48.71,2.41.53,3.68.61,4.47.27,8.85-.79,12.75,3.5,2.2,2.41,7.66-1.1,10.69,3.01,2.4,3.26,6.21,1.08,9.36,1.47,2.64.32,5.34.07,8.36.07,2.15,2.23,4.36,4.74,6.84,6.96.83.74,2.54,1.29,3.5.95,2.16-.75,4.03-2.8,6.15-3,1.43-.13,2.99,2.8,4.63,2.96,4.64.44,9.94-1.2,13.87.52,4.16,1.83,7.69,4.2,12.55,3.72,4.54-.44,9.18-.85,12.57,3.77.71.96,3.82.16,5.82.16,4.68,0,9.5.71,14.01-.19,4.85-.97,6.23,4.64,10.42,4.24,1.96-.19,3.95-.03,4.52-.03,5.71,5.3,10.58,9.82,14.94,13.87,3,7.28-4.06,11.07-4.48,16.82-.04.55-2.14,1.35-3.28,1.34-4.1-.02-5.55,6.03-10.27,4.35-2.47,4.12-6.47,3.66-10.47,3.92-1.61.1-3.32,1.86-4.6,3.22-2.8,2.96-5.49,5.69-10.16,4.72-1.09-.22-3.06.21-3.47.97-2.17,3.98-7.38,1.99-9.91,5.54-2.29,3.22-7.19-.24-9.12,1.71-3.22,3.25-6.5,3.74-10.61,3.86-3.72.12-5.79,5.33-10.39,3.91-3.92-1.21-5.22,3.7-8.37,3.89-3.95.24-8.04-.46-10.53,3.72-7.38-.84-12.36,3.03-16.27,8.51h-12.31c-2.74,4.95-9.72,3.55-12.57,8.48-1.86,3.21-5.04,3.95-8.57,3.47-.66-.09-1.49-.27-1.98.03-4.3,2.57-8.4,7.07-12.83,7.41-5.46.42-9.68,2.59-14.33,4.54-7.4,3.12-13.7,9.14-22.48,8.69-5.27,5.81-14.21,5.35-19.37,11.35-3.94-.88-6.1,1.78-8.25,4.27-2.26,2.63-4.71,4.59-8.47,3.82-4.88-1-8.36,2.13-12.5,3.71-4.55,1.74-8.4,6.83-14.27,4.31-3.35,4.1-9.61,3.35-12.79,7.96-3.9,5.66-9.17,9.18-16.48,8.62-.43-.03-.86,1.11-1.43,1.32-5.8,2.15-10.54,7.35-17.51,6.18-2.68,2.91-6.81,3.26-9.77,5.36-4.17,2.95-6.9,8.31-13.33,6.68-4.37,2.85-8.83,5.07-14.41,4.15-1.59-.26-3.95.68-5.09,1.88-2.18,2.3-4.72,1.7-7.25,2.08-1.78.26-3.41,1.4-5.14,2.07-1.73.67-4.15.73-5.13,1.96-3.02,3.78-7.8,4.18-11.58,6.25-5.3,2.89-10.56,7.73-17.66,5.7-3.96-1.13-5.46,2.99-8.38,3.97-7.36,2.45-14.11,5.79-19.2,12.08h-15.93c-7.03,8.11-16.34,2.07-23.97,4.32-3.72-3.72-7.03-7.03-10.34-10.34,0-3.34.27-6.71-.06-10.03-.63-6.26,2.71-13.44-3.95-18.41.08-3.98.16-7.96.24-11.94,6.75-5.86,3.1-13.39,3.28-20.31-6.9-2.09,4.44-9.51-3.32-11.35.81-.95,1.91-1.77,2.36-2.87.7-1.71,1.85-4.77,1.26-5.21-3.74-2.81-3.88-6.45-3.91-10.58-.05-6.35,1.82-13.17-3.84-18.5-.67-.63.06-2.6-.11-3.91-1.23-9.49,2.84-19.54-3.75-28.61-1.59-2.19-.24-6.52-.24-9.86,0-14.71-.12-29.43.09-44.14.05-3.63-1.51-5.89-3.51-8.67-2.39-3.34.81-5.92,3.42-8.22Zm79.56-37.1c-6.87-2.07-12.66-7.12-20.22-5.11-6.57-6.25-14.43-3.77-21.64-3.67-.77.93-1.54,1.42-1.54,1.92-.07,11.98-.05,23.96-.05,35.86-2.63,2.87-7.04,5.33-2.29,9.7,2.17,2,3.56,4.8,1.63,6.7-3,2.96-2.49,4.28-.11,7.44,1.45,1.93,1.23,7.33-.42,8.93-3.89,3.78-1.13,5.21,1.15,7.25-1.32,1.44-2.6,2.84-3.37,3.69,1.24,2.56,3.04,4.73,3.25,7.04.54,5.91.28,11.88.64,17.81.04.61,2.04,1.47,3.18,1.56,1.14.08,3.27-.53,3.36-1.08.57-3.84.27-7.84,1.12-11.59.8-3.55,5.21-5.82,3.9-10.36-2.17-7.55,2.95-13.36,4.92-19.93,4.09-1.92,2.26-7.07,5.54-9.78,3.53-2.91.65-7.54,1.64-11.24.46-1.74,1.8-3.23,2.65-4.88,1.72-3.31,2.39-6.95,5.49-9.82,3.1-2.88,5.04-7.1,7.16-10.92,1.48-2.67,2.4-5.65,4-9.52Zm329.88,65.08c-3.54-3.35-8.25-.29-9.93-2.19-3.74-4.23-8.03-3.73-12.61-3.88-1.79-.06-4.26-.47-5.2-1.67-3.11-3.95-8.47-.35-10.77-2.92-3.88-4.33-8.34-3.38-12.77-3.26-3.15.09-4.49-2.15-6.62-3.54-2.51-1.64-6.21-.56-6.23,1.93-.04,5.33-6.93,8.27-4.39,14.45.66,1.6-1.59,2.61-3.76,3.3-5.73,1.85-9.74,6.21-12.05,11.71-3.27,7.79-7.61,14.72-14.08,20.25-.91.78-1.74,2.02-1.93,3.16-.2,1.14.24,2.53.78,3.62.74,1.51,1.73,1.21,2.81-.44,2.26-3.46,6.27-1.3,8.92-2.58,3.39-1.65,5.94-4.95,9.06-7.27.89-.66,2.52-.66,3.75-.5,6.03.83,9.87-7.05,16.39-4.06,2.62-6.84,9.71-2.11,13.82-5.39,5.39-4.3,12.83-5.02,17.91-9.96,7.29.97,12.66-5.61,20.12-5.04,2.07.16,4.45-3.64,6.81-5.73Zm-307.12,18.09c3.3-3.3,6.59-6.59,9.88-9.88-2.15-5.29,6.44-6.89,4.19-12.21,4.78-2.13,4.17-7.64,6.64-11.3,2.41-3.57,3.89-7.82,7.38-10.82.9-.77,2.11-2.27,1.89-3.09-1.69-6.45,3.04-9.49,6.51-13.35,2.49-2.77,2.08-7.08,5.49-9.8,2.05-1.63-.29-6.15-2.97-5.67-6.79,1.21-12.41-1.83-17.37-4.48-6.68,6.71-12.72,12.79-19.63,19.72,0,1.12,1.11,4.87-.21,6.17-3.77,3.71-4.1,7.81-3.89,12.5.08,1.79-.21,4.49-1.36,5.26-3.63,2.45-2.22,7.06-5.25,10.06-2.34,2.31-3.68,6.39-5.07,9.7-1.38,3.31.02,7.25-3.37,10.69-2.83,2.87-.61,6.45,3.2,6.49,4.65.06,9.3.01,13.93.01Zm34.58,22.56c2.02,2.68,4.9,1.26,7.4,1.43,1.12.08,3.23-.64,3.32-1.23,1.35-8.81,9.43-12.24,14.39-18.08,4.31-5.07,9.36-9.52,14.08-14.24-1.25-5.07,5.53-7.1,4.7-12.21-.08-.51,3.03-1.48,4.61-2.32,1.1-.59,3.02-1.29,3.05-2,.34-8.71,9.06-10.84,12.89-16.75,1.03-1.59,2.5-2.98,3.17-4.7.37-.94-.16-2.69-.92-3.48-.75-.78-2.32-1.17-3.46-1.05-1.14.12-2.4.87-3.25,1.7-4.79,4.65-9.54,9.35-14.19,14.15-4.46,4.6-8.98,8.83-11.68,15.19-2.4,5.64-9.13,8.46-11.4,15.35-1.71,5.18-9.25,7.5-11.05,13.41-2.01,6.61-8.9,9.03-11.68,14.83Zm147.84-70.35c.66,7.27-1.9,13.57,3.96,17.9-.94.94-1.92,1.85-2.8,2.84-.31.35-.6,1.3-.53,1.34,1.07.6,2.15,1.35,3.32,1.58,3.28.65,4.37-2.43,6.27-4.05,2.99-2.55,5.66-5.49,8.78-7.85,1.35-1.02,3.49-1.01,5.22-1.46-.53-3.67,1.25-7.07-1.55-10.31h-22.66Zm-3.99,29.82c-.73-.45-2.12-1.61-2.37-1.4-1.96,1.63-4.18,3.27-5.33,5.43-.63,1.19.64,3.4,1.05,5.15.91-.39,2.01-.58,2.68-1.21,2.25-2.13,5.28-3.94,3.97-7.96Zm-21.3-34.83c.46-.46.91-.91,1.37-1.37-.46-.46-.84-1.15-1.39-1.32-1.15-.37-2.46-.82-3.58-.59-1.11.23-2.05,1.24-3.06,1.91,1.01.67,1.96,1.68,3.06,1.91,1.11.23,2.39-.32,3.59-.54Z"/><path d="m529.93,282.9c-2.59-2.59-4.95-4.95-8.03-8.03,0-2.53.52-5.89-.15-8.99-.64-2.94-2.51-5.61-3.86-8.39-2.52-5.17-4.08-10.36-4.36-16.37-.22-4.7-5.49-8.72-3.66-14.39-4.9-2.97-4.11-7.78-4.03-12.37.02-1.3.3-3.5-.28-3.78-6.09-3-1.71-10.07-5.57-13.85-.88-.87-1.98-2.01-2.07-3.11-.43-5.23-.55-10.49-.78-15.74-5.14-3.16-3.08-8.27-3.25-12.66-.18-4.59-5.65-6.99-4.27-12.42.96-3.77.28-7.98.16-11.98-.14-4.48-5.43-6.98-4.19-12.42,1.01-4.45.21-9.31.21-13.99-7.75-6.32-3.07-14.91-3.83-22.41-.81-7.94-.81-16.09.08-24.01.45-4.04,3.64-7.77,5.59-11.64,4.57,1.42,6.22-4.23,10.3-4.22,5.12,0,10.67,1.25,14.38-3.97,4.68,0,9.41.42,14.01-.18,2.26-.3,4.43-3.84,6.35-3.59,7.43.94,12.86-6.61,20.44-4.33,1.06.32,2.71-.07,3.63-.74,6.9-5.07,14.23-8.54,23.1-7.2,4.78-8.18,15.95.16,20.73-8.03,4.98-.71,10.33,1.91,14.9-2.97,2.94-3.14,9.38,1.16,12.24-4.33.36-.68,2.36-.62,3.62-.7,4.57-.3,10.14.98,13.44-1.2,3.23-2.13,7.46-1.89,10.09-5.14.97-1.2,3.42-1.59,5.22-1.64,6.68-.18,13.56.9,19.99-.37,5.66-1.12,7.09,6.66,12.42,4.34,1.99,3.85,4.7,7.52,5.78,11.61.99,3.75-.29,8.05.37,11.95.5,2.93,3.7,5.64,3.61,8.38-.2,6.24,3.04,13.46-3.77,18.39,1.41,8.12-3.33,17.09,3.82,24.59,1.25,1.31.99,6.23-.38,7.45-3.56,3.17-3.47,6.77-3.46,10.75.05,16.71.17,33.42-.07,50.12-.07,4.99,2.04,10.48-3.14,14.84-1.39,1.18-.75,4.96-.76,7.56-.06,13.37.22,26.74-.15,40.09-.16,5.61,2.45,12.06-3.46,16.59-.38.29-.41,1.18-.41,1.8-.03,4.68,1.46,10.1-.41,13.84-2.09,4.18-4.07,7.76-3.7,12.57.36,4.65-.13,9.36.14,14.02.24,4.17-.21,7.85-4.01,10.35,2.6,2.19,4.47,4.52,4.05,8.4-.43,3.96-.68,8.12.05,11.99.89,4.69-4.5,6.05-4.29,10.4.31,6.35,1.74,13.19-3.88,18.38,0,6.68.74,13.47-.23,20.02-.81,5.48-4.79,10.2-3.93,16.44.72,5.25.15,10.67.15,16.02,0,6.01-.51,12.09.15,18.03.62,5.61-5.46,8.53-4.39,14.43.88,4.9,1.88,10.75-3.78,14.34.7,3.11-1.52,6.64,1.41,9.45.88.84,1.57,1.87,2.35,2.82-6.39,5.12-3.21,12.23-3.66,18.5-.47,6.65-.24,13.36-.05,20.04.1,3.47-1.12,5.93-3.1,8.83-2.06,3.01-2.11,7.36,1.14,10.7,3.17,3.28,3.09,7.72.75,10.65-2.34,2.92-2.28,5.77-3.04,8.89-1.01,4.12-3.42,7.91-5.23,11.83-5.36-.45-8.17,5.8-14.17,4.81-5.86-.96-11.99-.21-18.01-.21-3.33-2.99-7.39-5.14-6.81-11.05.26-2.63-2.4-5.55-3.74-8.33-2.81-5.81-5.87-11.56-3.64-17.68-2.51-4.68-9.02-6.26-8.14-11.38.94-5.44-4.5-7.83-4.23-12.41.21-3.47-.17-6.56-3.34-8.66.77-5.48-6.3-8.04-4.9-14.12,1.01-4.4-4.06-7.21-4.37-12.3-.31-5.02-3.74-10.43-7.49-14.75,1.19-5.05-5.72-7.11-4.48-12.18-5.41-2.71-2.22-8.44-4.31-12.24-2.1-3.84-5.46-7.17-6.81-11.2-1.37-4.12.55-9.36-4.47-12.2.92-5.42-5.07-8.51-4.37-14.42.46-3.86-3.96-7.29-4.06-12.32-.08-3.91-3.8-7.45-4-12.36-.13-3.11-3.86-6.2-4.56-9.99-5.67-2.62-.77-9.26-4.36-12.14-4.05-3.26-2.84-7.3-2.58-10.98.37-5.46-5.64-8.52-4.35-14.43.97-4.43.19-9.25.19-13.67Zm120.38-180.71c.62-1.87-.02-2.54-1.86-1.84-.53.2-1.14.7-1.33,1.21-.41,1.08-.88,2.3-.74,3.38.14,1.07,1.02,2.04,1.57,3.06.78-.69,1.95-1.25,2.25-2.11.39-1.11.1-2.46.1-5.57,2.78.1,4.11-1.24,4.04-3.93,4.9-1.01,6.95-5.51,10.24-8.45,2.72-2.43,2.93-5.15-.57-7.41-3.57,5.16-11.6,7.41-9.7,15.78-2.78-.1-4.11,1.24-4.01,5.88Zm-68.22,134.57c-2.27-.45-3.69.96-3.91,2.75-.37,3.05-.1,6.19-.1,11.07,0-.6.23-1.43-.07-1.72-.3-.3-1.3-.3-1.69-.02-1.32.93-2.97,2.08-.55,3.49.32.19,1.52-1.12,2.31-3.53,2.27.45,3.69-.96,3.91-2.75.37-3.05.1-6.19,2.45-16.97-.44.21-1.19.34-1.27.65-.45,1.7-.64,3.46-1.1,5.16-.52,1.9.04,2.55,1.88,1.84.53-.2,1.09-.7,1.34-1.21,1.36-2.75.89-6-3.2,1.24Zm-24.15-44.14c-.58,0-1.36-.23-1.88.04-3.53,1.83-.57,10.23-8.13,8.04-1.99,3.78-4.11,7.5-5.86,11.39-.39.87.18,2.59.88,3.47,1.49,1.87,3.35,3.45,5.7,5.78,2.26-10.57,11.33-17.73,11.7-32.4-.77.63-1.67,1.17-2.28,1.94-.29.36-.28,1.39.02,1.68.3.3,1.33.31,1.68.02.75-.63,1.35-1.49,1.82-2.37.08-.15-.77-.8-3.65,2.42Zm-30.52-51.2c3.39-4.49,7.63-6.19,6.65-11.27-.31-1.62.36-4.16,1.54-5.19,3.97-3.49,5.74-8.3,8.6-12.39,3.01-4.32,7.41-7.44,5.92-13.66-.18-.77,1.47-1.96,2.25-2.97,2.29-2.97,6.93-4.56,5.64-9.63,2.66-2.7,5.33-5.4,8.04-8.15-3.85-3.33-7.97-1.35-11.74-1.9-4.16-.6-5.52,5.26-10.34,4.17-3.79-.86-7.94-.22-11.93-.11-.49.01-1.12.74-1.42,1.28-2.81,5.17-8.94.55-12.74,4.72,0,6.04-.34,12.64.1,19.19.37,5.59-2.44,12.01,3.5,16.46-1.39,6.91,4.43,11.53,5.93,19.44Zm50.7-13.39c3.36.18,5.28.41,7.2.35,4.29-.12,9.96,1.63,9-6.18,3.28-3.28,6.29-6.91,9.91-9.75,4.27-3.36.64-8.37,3.81-12.5,5.65-7.37,8.32-16.63,15.45-23.49,3.86-3.71,5.96-9.46,9.82-13.79,1.56-1.75.45-6.04.14-9.14-.06-.56-2.4-1.58-3.22-1.25-3.97,1.63-7.99,3.3-11.54,5.65-1.96,1.3-3.1,3.91-4.46,6.01-1,1.54-1.35,3.86-2.7,4.77-7.3,4.88-8.82,14.15-15.29,19.65-1.23,1.05-1.79,3.28-2.01,5.05-.31,2.54-1.14,4.75-1.96,7.15-2.69,7.84-9.31,12.15-14.13,17.95v9.52Zm58.86,245.85c-.89.43-2.64.99-2.6,1.3.74,5.43-6.13,8.63-4.14,14.34-3.19,3.9-3.25,9.54-7.25,12.99-.85,8.8-7.2,16.8-4.63,25.95,1.71,6.08,5.37,11.63,3.85,18.37,4.74,3.73,3.44,12.21,10.93,13.84,1.5-3.7,2.24-7.37-.54-10.83-1.11-1.38-3.05-2.46-.52-4.26,3.35-2.38,1.96-5.96,2.14-9.09.36-6.33-1.16-12.79,3.77-18.55,1.43-1.66,1.19-6.23-1.91-8.9-3.68-3.16,1.6-3.61,2.18-7.18,0-7.72.02-17.03-.05-26.33,0-.51-.74-1-1.24-1.64Zm-45.2-157.5c2.73-2.48,5.89-4.03,6.66-8.66.67-4.04,3.89-7.68,6.09-11.43,1.61-2.75,5.76-3.63,5.66-7.68-.1-4.03,5.5-5.74,4.24-10.27,4.55-3.91,5.25-9.85,7.79-14.81-2.07-7.49,7.46-8.82,7.89-14.72.24-3.24,3.57-4.19,3.92-6.38.43-2.75,1.31-4.66,2.9-6.92,2.29-3.24,2.37-7.23-1.84-12.9.33,7.27-3.15,10.75-6.98,13.94-3.17,2.63-1.34,6.16-2.31,11.23-3.31,2.64-7.96,6.36-11.48,9.16-.36,5.73,1,9.77-3.12,12.76-3.17,2.29-5.97,5.1-5.17,9.91.26,1.55-1.01,3.56-2.02,5.08-2.09,3.13-6.07,4.6-6.18,9.61-.06,2.54-4.99,4.45-3.64,8.35,1.64,4.74-4.68,6.21-4,10.37.19,1.17,1.04,2.23,1.61,3.38Zm-11.54,88.59c-3.39,0-5.35-.08-7.3.02-2.32.12-4.52,4.36-2.69,5.91,3.43,2.91,4.21,6.19,3.84,10.27-.18,1.94-.24,3.95.1,5.85.1.56,2.15,1.46,2.56,1.16,1.57-1.12,3.11-2.48,4.18-4.08,2.73-4.08-1.04-10.68,5.14-13.57.25-.12.2-1.3,0-1.88-.41-1.13-.79-2.84-1.6-3.13-1.74-.63-3.74-.5-4.22-.55Zm60.03,60.19c-.45.45-1.33.99-1.25,1.32.21.94.81,1.8,1.25,2.69.45-.45,1.33-.99,1.25-1.32-.21-.94-.81-1.8-1.25-2.69Z"/></g></g></svg>