<?xml version="1.0" encoding="UTF-8" standalone="no"?><svg xmlns="http://www.w3.org/2000/svg" xmlns:xlink="http://www.w3.org/1999/xlink" contentScriptType="text/ecmascript" fill="#000000" width="512" zoomAndPan="magnify" contentStyleType="text/css" viewBox="0.0 0.0 512.0 512.0" height="512" preserveAspectRatio="xMidYMid meet" version="1"><g id="change1_1"><circle fill="#c5e0f6" r="256" cx="256" cy="256"/></g><g><g id="change2_1"><path fill="#f9c5b8" d="M168.75,172.9c0,0-8.61,27.97-10.96,112.26c-0.5,17.89-0.72,38.32-0.51,61.56 c-0.68,47.45,39.35,51.04,39.35,51.04c41.15,5.17,53.52-30.35,53.52-30.35c9.28-56.01,70.11-92.45,74.65-118.05 c39.57-89.95-47.22-129.08-47.22-129.08C204.27,93.3,168.75,172.9,168.75,172.9z"/></g><g id="change3_8"><path d="M204.55,401.41c-2.63,0-5.38-0.16-8.26-0.53c-1-0.1-11.19-1.26-21.37-8.26c-9.69-6.67-21.16-20.05-20.79-45.96 c0.03-1.74,1.43-3.15,3.2-3.1c1.74,0.03,3.13,1.46,3.1,3.2c-0.26,18.56,5.81,32.24,18.06,40.67c9.14,6.29,18.33,7.18,18.43,7.19 c0.04,0.01,0.07,0.01,0.11,0.01c36.53,4.59,48.96-25.17,50.06-28.04c5.8-34.3,30.12-61.14,49.67-82.71 c12.49-13.78,23.28-25.69,24.94-35.07c0.05-0.25,0.12-0.49,0.22-0.72c15.87-36.06,13.1-67.98-8.21-94.85 c-15.52-19.57-35.79-29.32-37.33-30.03c-29.16-10.69-55.59-5.45-78.57,15.6c-17.36,15.9-26.09,35.2-26.18,35.39 c-0.71,1.59-2.57,2.3-4.16,1.6s-2.3-2.57-1.6-4.16c0.37-0.83,9.36-20.69,27.67-37.47c17.11-15.67,45.76-31.31,85.12-16.82 c0.07,0.03,0.14,0.05,0.2,0.09c0.91,0.41,22.59,10.34,39.62,31.71c10.07,12.64,16.37,26.64,18.73,41.62 c2.92,18.55-0.24,38.58-9.4,59.54c-2.16,11.06-12.87,22.89-26.4,37.82c-19.06,21.03-42.77,47.2-48.17,79.81 c-0.03,0.18-0.07,0.35-0.13,0.52c-0.14,0.39-3.43,9.66-12.08,18.31C234.07,393.72,222.34,401.41,204.55,401.41z"/></g><g id="change3_4"><path d="M218.23,243.56c-0.72,0-1.45-0.25-2.05-0.75c-11.71-10.02-18.43-24.6-18.43-40c0-29.01,23.6-52.62,52.62-52.62 s52.62,23.6,52.62,52.62c0,3.7-0.39,7.4-1.16,11c-0.36,1.7-2.03,2.79-3.73,2.43s-2.79-2.03-2.43-3.73 c0.68-3.17,1.02-6.43,1.02-9.69c0-25.54-20.78-46.32-46.32-46.32s-46.32,20.78-46.32,46.32c0,13.55,5.91,26.39,16.23,35.21 c1.32,1.13,1.48,3.12,0.35,4.44C220.01,243.19,219.12,243.56,218.23,243.56z"/></g><g id="change3_1"><path d="M206.55,317.69c-2.45,0-8.73-0.52-12.7-5.5c-3.88-4.86-4.26-12.27-1.13-22c0.18-0.54,0.5-1.04,0.93-1.41 c13.51-11.76,14.31-19.49,13.59-23.05c-0.93-4.58-4.93-6.33-6.6-6.88c-3.58-1.16-7.34-0.58-9.58,1.48 c-1.28,1.17-3.28,1.09-4.45-0.19s-1.09-3.28,0.19-4.45c3.95-3.62,10-4.71,15.79-2.83c5.68,1.84,9.73,6.18,10.84,11.61 c1.2,5.9-0.45,15.6-14.95,28.48c-2.14,7.05-2.05,12.33,0.29,15.29c2.37,3,6.67,3.18,7.93,3.16 c38.91-13.97,54.23-40.09,60.23-59.57c7.11-23.07,4.17-42.5-7.86-51.99c-12.58-9.92-33.72-7.8-56.54,5.69 c-1.5,0.89-3.43,0.39-4.31-1.11c-0.89-1.5-0.39-3.43,1.11-4.31c25.53-15.08,48.73-16.99,63.65-5.21 c14.15,11.17,17.88,33.14,9.97,58.79c-6.45,20.93-22.89,48.99-64.58,63.81c-0.25,0.09-0.51,0.14-0.78,0.17 C207.5,317.66,207.13,317.69,206.55,317.69z"/></g><g id="change3_9"><path d="M331.74,140.02c-1.09,0-2.15-0.56-2.73-1.58c-0.87-1.51-0.35-3.43,1.16-4.31l28.04-16.19c1.51-0.87,3.43-0.35,4.31,1.16 s0.35,3.43-1.16,4.31l-28.04,16.19C332.82,139.88,332.27,140.02,331.74,140.02z"/></g><g id="change3_3"><path d="M389.12,234.38h-40.8c-1.74,0-3.15-1.41-3.15-3.15c0-1.74,1.41-3.15,3.15-3.15h40.8c1.74,0,3.15,1.41,3.15,3.15 S390.86,234.38,389.12,234.38z"/></g><g id="change3_5"><path d="M336.7,331.09c-0.53,0-1.08-0.14-1.58-0.42l-28.04-16.19c-1.51-0.87-2.02-2.8-1.16-4.31c0.87-1.5,2.8-2.02,4.31-1.16 l28.04,16.19c1.51,0.87,2.02,2.8,1.16,4.31C338.85,330.52,337.79,331.09,336.7,331.09z"/></g><g id="change3_6"><path d="M176.53,272.37c-0.81,0-1.61-0.31-2.23-0.93c-4-4-6.2-9.31-6.2-14.97c0-5.65,2.2-10.97,6.2-14.97 c1.23-1.23,3.22-1.23,4.46,0c1.23,1.23,1.23,3.22,0,4.46c-2.81,2.81-4.35,6.54-4.35,10.51s1.54,7.7,4.35,10.51 c1.23,1.23,1.23,3.22,0,4.46C178.14,272.07,177.34,272.37,176.53,272.37z"/></g><g id="change3_7"><path d="M159.17,289.74c-0.81,0-1.61-0.31-2.23-0.93c-8.64-8.64-13.39-20.12-13.39-32.33c0-12.22,4.76-23.7,13.39-32.33 c1.23-1.23,3.22-1.23,4.46,0c1.23,1.23,1.23,3.22,0,4.46c-7.44,7.44-11.55,17.35-11.55,27.88c0,10.53,4.1,20.43,11.55,27.88 c1.23,1.23,1.23,3.22,0,4.46C160.77,289.44,159.97,289.74,159.17,289.74z"/></g><g id="change3_2"><path d="M142.57,306.34c-0.81,0-1.61-0.31-2.23-0.93c-13.07-13.07-20.27-30.45-20.27-48.93s7.2-35.86,20.27-48.93 c1.23-1.23,3.22-1.23,4.46,0c1.23,1.23,1.23,3.22,0,4.46c-11.88,11.88-18.43,27.67-18.43,44.48s6.54,32.6,18.43,44.48 c1.23,1.23,1.23,3.22,0,4.46C144.18,306.03,143.37,306.34,142.57,306.34z"/></g></g></svg>